<?xml version="1.0" encoding="UTF-8" standalone="no"?>
<!-- Created with Inkscape (http://www.inkscape.org/) -->

<svg
   width="135.46666mm"
   height="135.46666mm"
   viewBox="0 0 135.46666 135.46666"
   version="1.1"
   id="svg1"
   xml:space="preserve"
   inkscape:version="1.3.2 (091e20e, 2023-11-25, custom)"
   sodipodi:docname="wheel-ico.svg"
   inkscape:export-filename="wheel32.png"
   inkscape:export-xdpi="6.0000005"
   inkscape:export-ydpi="6.0000005"
   xmlns:inkscape="http://www.inkscape.org/namespaces/inkscape"
   xmlns:sodipodi="http://sodipodi.sourceforge.net/DTD/sodipodi-0.dtd"
   xmlns="http://www.w3.org/2000/svg"
   xmlns:svg="http://www.w3.org/2000/svg"><sodipodi:namedview
     id="namedview1"
     pagecolor="#505050"
     bordercolor="#eeeeee"
     borderopacity="1"
     inkscape:showpageshadow="0"
     inkscape:pageopacity="0"
     inkscape:pagecheckerboard="0"
     inkscape:deskcolor="#505050"
     inkscape:document-units="mm"
     showguides="false"
     inkscape:zoom="0.22649937"
     inkscape:cx="-44.150233"
     inkscape:cy="289.18403"
     inkscape:window-width="1920"
     inkscape:window-height="1009"
     inkscape:window-x="4472"
     inkscape:window-y="192"
     inkscape:window-maximized="1"
     inkscape:current-layer="layer1"
     showgrid="false" /><defs
     id="defs1" /><g
     inkscape:label="Layer 1"
     inkscape:groupmode="layer"
     id="layer1"
     transform="translate(-121.45771,-70.100048)"><g
       id="g1"
       transform="matrix(0.99999219,0,0,1.0021281,0.00147464,-0.14865237)"><path
         style="fill:#1a1a1a;stroke:#cccccc;stroke-width:1.00027"
         d="m 182.97128,205.27367 c -12.54194,-1.19568 -24.46932,-5.83821 -34.78092,-13.53789 -3.26605,-2.43875 -10.47777,-9.64958 -12.91682,-12.91521 -18.42111,-24.66389 -18.42111,-57.32731 0,-81.991193 2.43905,-3.265635 9.65077,-10.476461 12.91682,-12.915215 24.66694,-18.418818 57.33441,-18.418818 82.00137,0 3.26604,2.438754 10.47775,9.64958 12.91681,12.915215 18.42111,24.663883 18.42111,57.327303 0,81.991193 -2.43906,3.26563 -9.65077,10.47646 -12.91681,12.91521 -13.75714,10.27245 -30.65539,15.1171 -47.22045,13.53789 z m -2.39976,-19.74771 c -0.97544,-14.74968 -6.46268,-27.49274 -15.65271,-36.35042 -7.0975,-6.84083 -15.00794,-10.50272 -24.26713,-11.2337 l -2.3543,-0.18587 0.18978,2.87936 c 0.81746,12.40286 5.5968,23.31875 14.04697,32.08289 6.93313,7.19072 14.72277,11.74446 24.27291,14.18966 1.93464,0.49533 3.60755,0.90804 3.71758,0.91714 0.11002,0.009 0.13113,-1.02549 0.0469,-2.29906 z m 21.58361,1.21232 c 8.95516,-2.27384 16.90067,-6.97554 23.69282,-14.02006 8.45017,-8.76414 13.22952,-19.68003 14.04698,-32.08289 l 0.18977,-2.87936 -2.3543,0.18587 c -9.25919,0.73098 -17.16964,4.39287 -24.26713,11.2337 -9.19148,8.85908 -14.67686,21.59942 -15.65314,36.35596 l -0.15357,2.32112 0.72982,-0.17135 c 0.4014,-0.0942 2.09734,-0.5186 3.76875,-0.94299 z m -10.89775,-40.74983 c 3.00066,-0.7367 5.52638,-3.40655 6.16996,-6.52202 1.2016,-5.8169 -4.06035,-11.0782 -9.87796,-9.87673 -2.14765,0.44353 -4.15151,1.78288 -5.33519,3.56594 -4.24511,6.39473 1.58253,14.66449 9.04319,12.83281 z m 45.42677,-25.69575 c -0.10082,-0.32748 -0.7622,-1.86856 -1.46972,-3.42462 -8.24899,-18.142042 -26.30395,-29.853598 -46.02339,-29.853598 -17.77132,0 -34.04911,9.341857 -43.48786,24.957788 -1.16087,1.92058 -3.58592,6.95836 -4.00525,8.32043 l -0.18331,0.59545 h 47.67642 47.67642 z"
         id="path1" /><path
         id="path407"
         style="font-size:185.03px;line-height:1.25;font-family:'Fast Hand';-inkscape-font-specification:'Fast Hand, Normal';white-space:pre;fill:#ff0000;stroke-width:1.24068"
         d="m 190.32902,115.15187 -16.12018,37.24779 -6.23846,-14.49595 4.90137,-6.07952 v -11.96165 l -14.80264,18.34845 v -14.4856 h -6.57899 v 34.58978 l 11.5297,-14.26612 4.49013,10.4033 h 5.81046 l -2.60475,6.01862 h 9.67036 l 9.943,-22.95342 5.09748,11.75664 h -8.47464 l -4.84579,11.19678 h 27.83644 l -1.70106,-3.93031 h 9.20189 c 8.04029,0 12.06041,-5.81726 12.06041,-17.45177 0,-11.63452 -4.02012,-17.45183 -12.06041,-17.45183 h -12.0604 l 3.97994,9.97244 h 8.08046 c 3.44584,0 5.16873,2.49317 5.16873,7.47939 0,4.98623 -1.72289,7.47925 -5.16873,7.47925 h -3.44591 v -12.46546 h -6.89168 v 19.8137 z m 40.89768,6.48519 v 34.9036 h 10.1825 l 3.97994,-9.97252 h -7.27076 v -2.49303 h 8.27008 l 3.97994,-9.97243 h -12.25002 v -2.49318 h 13.24933 l 3.97995,-9.97244 z m -106.45312,2.08833 3.79935,8.77906 h 11.82574 c 0.54825,0 0.82233,0.36587 0.82233,1.09745 0,0.7316 -0.27408,1.09746 -0.82233,1.09746 h -13.9803 v 21.94774 l 6.57899,-4.38951 v -8.77917 h 4.6875 l 4.75334,10.97393 h 7.58219 l -5.2961,-12.22495 c 2.05044,-1.50708 3.0757,-4.38225 3.0757,-8.6255 0,-6.58434 -2.46709,-9.87651 -7.40132,-9.87651 z" /></g></g></svg>
